<mxfile host="app.diagrams.net" modified="2024-02-06T19:27:34.189Z" agent="Mozilla/5.0 (Windows NT 10.0; Win64; x64) AppleWebKit/537.36 (KHTML, like Gecko) Chrome/120.0.0.0 YaBrowser/24.1.0.0 Safari/537.36" etag="xB0oAVqtdbsdL6EfOfQk" version="23.1.1" type="device">
  <diagram name="Страница — 1" id="9-P4i1iiDAQAPwLJd-Fo">
    <mxGraphModel dx="2213" dy="791" grid="1" gridSize="10" guides="1" tooltips="1" connect="1" arrows="1" fold="1" page="1" pageScale="1" pageWidth="827" pageHeight="1169" math="0" shadow="0">
      <root>
        <mxCell id="0" />
        <mxCell id="1" parent="0" />
        <mxCell id="nU0AsXH7eeYf56PAm0Ts-4" value="" style="edgeStyle=orthogonalEdgeStyle;rounded=0;orthogonalLoop=1;jettySize=auto;html=1;" edge="1" parent="1" source="nU0AsXH7eeYf56PAm0Ts-2" target="nU0AsXH7eeYf56PAm0Ts-3">
          <mxGeometry relative="1" as="geometry" />
        </mxCell>
        <mxCell id="nU0AsXH7eeYf56PAm0Ts-2" value="string [ ] arr" style="shape=document;whiteSpace=wrap;html=1;boundedLbl=1;size=0.375;" vertex="1" parent="1">
          <mxGeometry x="-473" y="20" width="120" height="80" as="geometry" />
        </mxCell>
        <mxCell id="nU0AsXH7eeYf56PAm0Ts-6" value="" style="edgeStyle=orthogonalEdgeStyle;rounded=0;orthogonalLoop=1;jettySize=auto;html=1;" edge="1" parent="1" source="nU0AsXH7eeYf56PAm0Ts-3" target="nU0AsXH7eeYf56PAm0Ts-5">
          <mxGeometry relative="1" as="geometry" />
        </mxCell>
        <mxCell id="nU0AsXH7eeYf56PAm0Ts-3" value="int length = arr.length&lt;br&gt;list&amp;lt;string&amp;gt; mass = new()&lt;br&gt;int i = 0" style="shape=parallelogram;perimeter=parallelogramPerimeter;whiteSpace=wrap;html=1;fixedSize=1;" vertex="1" parent="1">
          <mxGeometry x="-518" y="140" width="210" height="60" as="geometry" />
        </mxCell>
        <mxCell id="nU0AsXH7eeYf56PAm0Ts-8" value="" style="edgeStyle=orthogonalEdgeStyle;rounded=0;orthogonalLoop=1;jettySize=auto;html=1;" edge="1" parent="1" source="nU0AsXH7eeYf56PAm0Ts-5" target="nU0AsXH7eeYf56PAm0Ts-7">
          <mxGeometry relative="1" as="geometry" />
        </mxCell>
        <mxCell id="nU0AsXH7eeYf56PAm0Ts-9" value="NO" style="edgeLabel;html=1;align=center;verticalAlign=middle;resizable=0;points=[];" vertex="1" connectable="0" parent="nU0AsXH7eeYf56PAm0Ts-8">
          <mxGeometry x="-0.1" y="-2" relative="1" as="geometry">
            <mxPoint as="offset" />
          </mxGeometry>
        </mxCell>
        <mxCell id="nU0AsXH7eeYf56PAm0Ts-23" value="" style="edgeStyle=orthogonalEdgeStyle;rounded=0;orthogonalLoop=1;jettySize=auto;html=1;" edge="1" parent="1" source="nU0AsXH7eeYf56PAm0Ts-5" target="nU0AsXH7eeYf56PAm0Ts-22">
          <mxGeometry relative="1" as="geometry" />
        </mxCell>
        <mxCell id="nU0AsXH7eeYf56PAm0Ts-24" value="Yes" style="edgeLabel;html=1;align=center;verticalAlign=middle;resizable=0;points=[];" vertex="1" connectable="0" parent="nU0AsXH7eeYf56PAm0Ts-23">
          <mxGeometry x="-0.1507" y="-2" relative="1" as="geometry">
            <mxPoint as="offset" />
          </mxGeometry>
        </mxCell>
        <mxCell id="nU0AsXH7eeYf56PAm0Ts-5" value="i&amp;gt;length" style="rhombus;whiteSpace=wrap;html=1;" vertex="1" parent="1">
          <mxGeometry x="-453" y="240" width="80" height="80" as="geometry" />
        </mxCell>
        <mxCell id="nU0AsXH7eeYf56PAm0Ts-13" value="" style="edgeStyle=orthogonalEdgeStyle;rounded=0;orthogonalLoop=1;jettySize=auto;html=1;" edge="1" parent="1" source="nU0AsXH7eeYf56PAm0Ts-7" target="nU0AsXH7eeYf56PAm0Ts-12">
          <mxGeometry relative="1" as="geometry" />
        </mxCell>
        <mxCell id="nU0AsXH7eeYf56PAm0Ts-7" value="int len = arr [ i ].Length&lt;br&gt;int max = 3" style="rounded=1;whiteSpace=wrap;html=1;" vertex="1" parent="1">
          <mxGeometry x="-500" y="360" width="170" height="60" as="geometry" />
        </mxCell>
        <mxCell id="nU0AsXH7eeYf56PAm0Ts-14" style="edgeStyle=orthogonalEdgeStyle;rounded=0;orthogonalLoop=1;jettySize=auto;html=1;exitX=0;exitY=0.5;exitDx=0;exitDy=0;entryX=0.5;entryY=1;entryDx=0;entryDy=0;" edge="1" parent="1" source="nU0AsXH7eeYf56PAm0Ts-12" target="nU0AsXH7eeYf56PAm0Ts-15">
          <mxGeometry relative="1" as="geometry">
            <mxPoint x="-590" y="495" as="targetPoint" />
          </mxGeometry>
        </mxCell>
        <mxCell id="nU0AsXH7eeYf56PAm0Ts-17" value="Yes" style="edgeLabel;html=1;align=center;verticalAlign=middle;resizable=0;points=[];" vertex="1" connectable="0" parent="nU0AsXH7eeYf56PAm0Ts-14">
          <mxGeometry x="-0.2896" y="-1" relative="1" as="geometry">
            <mxPoint as="offset" />
          </mxGeometry>
        </mxCell>
        <mxCell id="nU0AsXH7eeYf56PAm0Ts-18" style="edgeStyle=orthogonalEdgeStyle;rounded=0;orthogonalLoop=1;jettySize=auto;html=1;exitX=0.5;exitY=1;exitDx=0;exitDy=0;entryX=0;entryY=0.5;entryDx=0;entryDy=0;" edge="1" parent="1" source="nU0AsXH7eeYf56PAm0Ts-12" target="nU0AsXH7eeYf56PAm0Ts-16">
          <mxGeometry relative="1" as="geometry" />
        </mxCell>
        <mxCell id="nU0AsXH7eeYf56PAm0Ts-19" value="No" style="edgeLabel;html=1;align=center;verticalAlign=middle;resizable=0;points=[];" vertex="1" connectable="0" parent="nU0AsXH7eeYf56PAm0Ts-18">
          <mxGeometry x="-0.4542" y="-4" relative="1" as="geometry">
            <mxPoint as="offset" />
          </mxGeometry>
        </mxCell>
        <mxCell id="nU0AsXH7eeYf56PAm0Ts-12" value="len &amp;lt; = max" style="rhombus;whiteSpace=wrap;html=1;" vertex="1" parent="1">
          <mxGeometry x="-465" y="470" width="100" height="90" as="geometry" />
        </mxCell>
        <mxCell id="nU0AsXH7eeYf56PAm0Ts-20" value="" style="edgeStyle=orthogonalEdgeStyle;rounded=0;orthogonalLoop=1;jettySize=auto;html=1;" edge="1" parent="1" source="nU0AsXH7eeYf56PAm0Ts-15" target="nU0AsXH7eeYf56PAm0Ts-16">
          <mxGeometry relative="1" as="geometry" />
        </mxCell>
        <mxCell id="nU0AsXH7eeYf56PAm0Ts-15" value="mass.Add( arr [ i ] )" style="rounded=1;whiteSpace=wrap;html=1;" vertex="1" parent="1">
          <mxGeometry x="-638" y="360" width="120" height="60" as="geometry" />
        </mxCell>
        <mxCell id="nU0AsXH7eeYf56PAm0Ts-21" value="" style="edgeStyle=orthogonalEdgeStyle;rounded=0;orthogonalLoop=1;jettySize=auto;html=1;" edge="1" parent="1" source="nU0AsXH7eeYf56PAm0Ts-16" target="nU0AsXH7eeYf56PAm0Ts-5">
          <mxGeometry relative="1" as="geometry" />
        </mxCell>
        <mxCell id="nU0AsXH7eeYf56PAm0Ts-16" value="i++" style="rounded=1;whiteSpace=wrap;html=1;" vertex="1" parent="1">
          <mxGeometry x="-638" y="250" width="120" height="60" as="geometry" />
        </mxCell>
        <mxCell id="nU0AsXH7eeYf56PAm0Ts-26" value="" style="edgeStyle=orthogonalEdgeStyle;rounded=0;orthogonalLoop=1;jettySize=auto;html=1;" edge="1" parent="1" source="nU0AsXH7eeYf56PAm0Ts-22" target="nU0AsXH7eeYf56PAm0Ts-25">
          <mxGeometry relative="1" as="geometry" />
        </mxCell>
        <mxCell id="nU0AsXH7eeYf56PAm0Ts-22" value="int lrange = mass.Count&lt;br&gt;int i = 0&lt;br&gt;string [ ] arr2 = new string [ lrange ]" style="rounded=1;whiteSpace=wrap;html=1;" vertex="1" parent="1">
          <mxGeometry x="-300" y="250" width="200" height="60" as="geometry" />
        </mxCell>
        <mxCell id="nU0AsXH7eeYf56PAm0Ts-28" value="" style="edgeStyle=orthogonalEdgeStyle;rounded=0;orthogonalLoop=1;jettySize=auto;html=1;" edge="1" parent="1" source="nU0AsXH7eeYf56PAm0Ts-25" target="nU0AsXH7eeYf56PAm0Ts-27">
          <mxGeometry relative="1" as="geometry" />
        </mxCell>
        <mxCell id="nU0AsXH7eeYf56PAm0Ts-29" value="No" style="edgeLabel;html=1;align=center;verticalAlign=middle;resizable=0;points=[];" vertex="1" connectable="0" parent="nU0AsXH7eeYf56PAm0Ts-28">
          <mxGeometry x="-0.2" y="2" relative="1" as="geometry">
            <mxPoint as="offset" />
          </mxGeometry>
        </mxCell>
        <mxCell id="nU0AsXH7eeYf56PAm0Ts-31" style="edgeStyle=orthogonalEdgeStyle;rounded=0;orthogonalLoop=1;jettySize=auto;html=1;exitX=1;exitY=0.5;exitDx=0;exitDy=0;" edge="1" parent="1" source="nU0AsXH7eeYf56PAm0Ts-25">
          <mxGeometry relative="1" as="geometry">
            <mxPoint x="-420" y="650" as="targetPoint" />
            <Array as="points">
              <mxPoint x="-90" y="400" />
              <mxPoint x="-90" y="610" />
              <mxPoint x="-419" y="610" />
            </Array>
          </mxGeometry>
        </mxCell>
        <mxCell id="nU0AsXH7eeYf56PAm0Ts-32" value="Yes" style="edgeLabel;html=1;align=center;verticalAlign=middle;resizable=0;points=[];" vertex="1" connectable="0" parent="nU0AsXH7eeYf56PAm0Ts-31">
          <mxGeometry x="-0.8891" y="-3" relative="1" as="geometry">
            <mxPoint as="offset" />
          </mxGeometry>
        </mxCell>
        <mxCell id="nU0AsXH7eeYf56PAm0Ts-25" value="i&amp;gt;lrange" style="rhombus;whiteSpace=wrap;html=1;" vertex="1" parent="1">
          <mxGeometry x="-240" y="360" width="80" height="80" as="geometry" />
        </mxCell>
        <mxCell id="nU0AsXH7eeYf56PAm0Ts-30" style="edgeStyle=orthogonalEdgeStyle;rounded=0;orthogonalLoop=1;jettySize=auto;html=1;exitX=0.5;exitY=1;exitDx=0;exitDy=0;entryX=0;entryY=0.5;entryDx=0;entryDy=0;" edge="1" parent="1" source="nU0AsXH7eeYf56PAm0Ts-27" target="nU0AsXH7eeYf56PAm0Ts-25">
          <mxGeometry relative="1" as="geometry">
            <Array as="points">
              <mxPoint x="-200" y="580" />
              <mxPoint x="-280" y="580" />
              <mxPoint x="-280" y="400" />
            </Array>
          </mxGeometry>
        </mxCell>
        <mxCell id="nU0AsXH7eeYf56PAm0Ts-27" value="arr2 [ i ] = mass [ i ]&amp;nbsp;&lt;br&gt;i++" style="rounded=1;whiteSpace=wrap;html=1;" vertex="1" parent="1">
          <mxGeometry x="-260" y="485" width="120" height="60" as="geometry" />
        </mxCell>
        <mxCell id="nU0AsXH7eeYf56PAm0Ts-33" value="return arr2" style="shape=document;whiteSpace=wrap;html=1;boundedLbl=1;" vertex="1" parent="1">
          <mxGeometry x="-480" y="650" width="120" height="80" as="geometry" />
        </mxCell>
      </root>
    </mxGraphModel>
  </diagram>
</mxfile>
